# xmcd
#
# Track frame offsets: 
#        150
#        27015
#        53497
#        85257
#        121062
#        141262
#        176695
#        193555
#        226720
#        246010
#
# Disc length: 3500 seconds
#
# Revision: 86
# Processed by: cddbd v1.5.2PL0 Copyright (c) Steve Scherf et al.
# Submitted via: ExactAudioCopyFreeDBPlugin 1.0
#
DISCID=730daa0a
DTITLE=Miles Davis - 'Round About Midnight [2009 Reissue]
DYEAR=1957
DGENRE=Jazz
TTITLE0='Round Midnight
TTITLE1=Ah-Leu-Cha
TTITLE2=All Of You
TTITLE3=Bye Bye Blackbird
TTITLE4=Tadd's Delight
TTITLE5=Dear Old Stockholm
TTITLE6=Two Bass Hit
TTITLE7=Little Melonae
TTITLE8=Budo
TTITLE9=Sweet Sue, Just You
EXTD=
EXTT0=
EXTT1=
EXTT2=
EXTT3=
EXTT4=
EXTT5=
EXTT6=
EXTT7=
EXTT8=
EXTT9=
PLAYORDER=
